<?xml version="1.0" encoding="UTF-8" standalone="no"?><!DOCTYPE svg PUBLIC "-//W3C//DTD SVG 1.1//EN" "http://www.w3.org/Graphics/SVG/1.1/DTD/svg11.dtd"><svg width="100%" height="100%" viewBox="0 0 709 240" version="1.1" xmlns="http://www.w3.org/2000/svg" xmlns:xlink="http://www.w3.org/1999/xlink" xml:space="preserve" xmlns:serif="http://www.serif.com/" style="fill-rule:evenodd;clip-rule:evenodd;stroke-linejoin:round;stroke-miterlimit:2;"><g transform="matrix(0.778426,0,0,0.97095,-202.917,-269.898)"><text x="281.063px" y="382.726px" style="font-family:'Copperplate';font-size:138.478px;fill:#fff;stroke:#fff;stroke-width:0.95px;">Code Secret</text><text x="436.315px" y="487.675px" style="font-family:'Copperplate';font-size:102.992px;fill:#fff;stroke:#fff;stroke-width:0.95px;">numérique</text></g><path d="M118.547,131.953l-82.434,-0c-17.632,-0 -31.946,-14.315 -31.946,-31.947l-0,-63.893c-0,-17.632 14.314,-31.946 31.946,-31.946l636.69,-0c17.632,-0 31.947,14.314 31.947,31.946l-0,63.893c-0,17.632 -14.315,31.947 -31.947,31.947l-82.356,-0l-0,66.158c-0,20.716 -16.819,37.535 -37.536,37.535l-396.829,0c-20.716,0 -37.535,-16.819 -37.535,-37.535l0,-66.158Z" style="fill:#702727;fill-opacity:0;stroke:#fff;stroke-width:8.33px;stroke-linecap:round;stroke-miterlimit:1.5;"/></svg>